<svg xmlns="http://www.w3.org/2000/svg" width="390" height="844" viewBox="0 0 390 844" role="img" aria-labelledby="title desc">
  <title id="title">Artificially Neuroscience studies phone screen</title>
  <desc id="desc">A geometric phone app preview showing studies, programming languages, algorithms, and projects.</desc>
  <defs>
    <linearGradient id="bg2" x1="0" y1="0" x2="1" y2="1">
      <stop stop-color="#f5f3ee"/>
      <stop offset="1" stop-color="#e3f0ee"/>
    </linearGradient>
    <pattern id="grid2" width="24" height="24" patternUnits="userSpaceOnUse">
      <path d="M24 0H0V24" fill="none" stroke="#267774" stroke-opacity=".07"/>
    </pattern>
  </defs>
  <rect width="390" height="844" fill="url(#bg2)"/>
  <rect width="390" height="844" fill="url(#grid2)"/>
  <path d="M0 0h390v112H0z" fill="#fff" stroke="#d8e0ea"/>
  <path d="M22 20h42v42H22z" fill="#14264a"/>
  <text x="43" y="47" fill="#fff" text-anchor="middle" font-family="Arial" font-size="12" font-weight="700">AN</text>
  <text x="78" y="47" fill="#12213f" font-family="Arial" font-size="15" font-weight="700">Artificially Neuroscience</text>
  <g fill="#40506d" font-family="Arial" font-size="10" font-weight="700">
    <text x="24" y="91">PROTOCOLS</text>
    <text x="105" y="91">RESEARCH</text>
    <text x="174" y="91" fill="#14264a">STUDIES</text>
    <text x="240" y="91">WORKSPACE</text>
    <text x="320" y="91">APP</text>
  </g>
  <path d="M164 100h66" stroke="#267774" stroke-width="3"/>
  <path d="M0 112h390v64H0z" fill="#14264a"/>
  <path d="M20 127h36v36H20z" fill="none" stroke="#91c1bd"/>
  <text x="38" y="150" fill="#f1c979" text-anchor="middle" font-size="18">◉</text>
  <text x="70" y="143" fill="#fff" font-family="Arial" font-size="15" font-weight="700">Studies &amp; Projects</text>
  <text x="70" y="159" fill="#afbdd2" font-family="Arial" font-size="8" letter-spacing="2">KNOWLEDGE LIBRARY</text>
  <text x="24" y="220" fill="#267774" font-family="Arial" font-size="10" font-weight="700" letter-spacing="2">STUDIES &amp; PROJECTS</text>
  <text x="24" y="262" fill="#12213f" font-family="Georgia" font-size="31">Develop ideas.</text>
  <text x="24" y="298" fill="#12213f" font-family="Georgia" font-size="31">Preserve learning.</text>
  <text x="24" y="330" fill="#40506d" font-family="Arial" font-size="12">Nothing is prefilled.</text>
  <g>
    <path d="M24 372h164v180H24z" fill="#fff" stroke="#d8e0ea"/>
    <path d="M24 372h164v6H24z" fill="#267774"/>
    <path d="M46 397h38v38H46z" fill="#e3f0ee" stroke="#267774"/>
    <text x="65" y="422" fill="#14264a" text-anchor="middle" font-size="18">◉</text>
    <text x="46" y="470" fill="#12213f" font-family="Georgia" font-size="21">Studies</text>
    <text x="46" y="496" fill="#40506d" font-family="Arial" font-size="10">Concept breakdowns</text>
    <text x="46" y="514" fill="#40506d" font-family="Arial" font-size="10">and visual notes</text>
  </g>
  <g>
    <path d="M202 372h164v180H202z" fill="#fff" stroke="#d8e0ea"/>
    <path d="M202 372h164v6H202z" fill="#315fa8"/>
    <path d="M224 397h38v38H224z" fill="#e4ebf6" stroke="#315fa8"/>
    <text x="243" y="422" fill="#14264a" text-anchor="middle" font-size="18">⌘</text>
    <text x="224" y="470" fill="#12213f" font-family="Georgia" font-size="19">Languages</text>
    <text x="224" y="496" fill="#40506d" font-family="Arial" font-size="10">Syntax refreshers</text>
    <text x="224" y="514" fill="#40506d" font-family="Arial" font-size="10">and mental models</text>
  </g>
  <g>
    <path d="M24 568h164v180H24z" fill="#fff" stroke="#d8e0ea"/>
    <path d="M24 568h164v6H24z" fill="#7d87aa"/>
    <path d="M46 593h38v38H46z" fill="#eceef5" stroke="#7d87aa"/>
    <text x="65" y="618" fill="#14264a" text-anchor="middle" font-size="18">⌬</text>
    <text x="46" y="666" fill="#12213f" font-family="Georgia" font-size="21">Algorithms</text>
    <text x="46" y="692" fill="#40506d" font-family="Arial" font-size="10">Use cases + animated</text>
    <text x="46" y="710" fill="#40506d" font-family="Arial" font-size="10">visual walkthroughs</text>
  </g>
  <g>
    <path d="M202 568h164v180H202z" fill="#fff" stroke="#d8e0ea"/>
    <path d="M202 568h164v6H202z" fill="#b88024"/>
    <path d="M224 593h38v38H224z" fill="#f5ead8" stroke="#b88024"/>
    <text x="243" y="618" fill="#14264a" text-anchor="middle" font-size="18">◇</text>
    <text x="224" y="666" fill="#12213f" font-family="Georgia" font-size="21">Projects</text>
    <text x="224" y="692" fill="#40506d" font-family="Arial" font-size="10">Problems, solutions,</text>
    <text x="224" y="710" fill="#40506d" font-family="Arial" font-size="10">languages, algorithms</text>
  </g>
</svg>
